<svg width="167" height="291" viewBox="0 0 167 291" fill="none" xmlns="http://www.w3.org/2000/svg">
<mask id="path-1-inside-1_5_857" fill="white">
<path d="M37.7344 172.315C37.7344 146.561 58.6126 125.682 84.3672 125.682V125.682C110.122 125.682 131 146.561 131 172.315V244.367C131 270.122 110.122 291 84.3672 291V291C58.6126 291 37.7344 270.122 37.7344 244.367V172.315Z"/>
</mask>
<path d="M126 172.315V244.367H136V172.315H126ZM42.7344 244.367V172.315H32.7344V244.367H42.7344ZM84.3672 286C61.374 286 42.7344 267.36 42.7344 244.367H32.7344C32.7344 272.883 55.8512 296 84.3672 296V286ZM126 244.367C126 267.36 107.36 286 84.3672 286V296C112.883 296 136 272.883 136 244.367H126ZM84.3672 130.682C107.36 130.682 126 149.322 126 172.315H136C136 143.799 112.883 120.682 84.3672 120.682V130.682ZM84.3672 120.682C55.8512 120.682 32.7344 143.799 32.7344 172.315H42.7344C42.7344 149.322 61.374 130.682 84.3672 130.682V120.682Z" fill="#176CEA" mask="url(#path-1-inside-1_5_857)"/>
<mask id="path-3-inside-2_5_857" fill="white">
<path d="M37 46.6328C37 20.8783 57.8782 0 83.6328 0V0C109.387 0 130.266 20.8782 130.266 46.6328V118.685C130.266 144.439 109.387 165.318 83.6328 165.318V165.318C57.8782 165.318 37 144.439 37 118.685V46.6328Z"/>
</mask>
<path d="M125.266 46.6328V118.685H135.266V46.6328H125.266ZM42 118.685V46.6328H32V118.685H42ZM83.6328 160.318C60.6396 160.318 42 141.678 42 118.685H32C32 147.201 55.1168 170.318 83.6328 170.318V160.318ZM125.266 118.685C125.266 141.678 106.626 160.318 83.6328 160.318V170.318C112.149 170.318 135.266 147.201 135.266 118.685H125.266ZM83.6328 5C106.626 5 125.266 23.6396 125.266 46.6328H135.266C135.266 18.1168 112.149 -5 83.6328 -5V5ZM83.6328 -5C55.1168 -5 32 18.1168 32 46.6328H42C42 23.6397 60.6396 5 83.6328 5V-5Z" fill="#176CEA" mask="url(#path-3-inside-2_5_857)"/>
<mask id="path-5-inside-3_5_857" fill="white">
<path d="M19.0235 185.682C19.0235 152.545 45.8864 125.682 79.0234 125.682H89C122.137 125.682 149 152.545 149 185.682V231C149 264.137 122.137 291 89 291H79.0235C45.8864 291 19.0235 264.137 19.0235 231V185.682Z"/>
</mask>
<path d="M79.0234 130.682H89V120.682H79.0234V130.682ZM144 185.682V231H154V185.682H144ZM89 286H79.0235V296H89V286ZM24.0235 231V185.682H14.0235V231H24.0235ZM79.0235 286C48.6478 286 24.0235 261.376 24.0235 231H14.0235C14.0235 266.899 43.1249 296 79.0235 296V286ZM144 231C144 261.376 119.376 286 89 286V296C124.899 296 154 266.898 154 231H144ZM89 130.682C119.376 130.682 144 155.307 144 185.682H154C154 149.784 124.899 120.682 89 120.682V130.682ZM79.0234 120.682C43.1249 120.682 14.0235 149.784 14.0235 185.682H24.0235C24.0235 155.307 48.6478 130.682 79.0234 130.682V120.682Z" fill="#3787FE" fill-opacity="0.85" mask="url(#path-5-inside-3_5_857)"/>
<mask id="path-7-inside-4_5_857" fill="white">
<path d="M18 60C18 26.8629 44.8629 0 78 0H87.9765C121.114 0 147.977 26.8629 147.977 60V105.318C147.977 138.455 121.114 165.318 87.9766 165.318H78C44.8629 165.318 18 138.455 18 105.318V60Z"/>
</mask>
<path d="M78 5H87.9765V-5H78V5ZM142.977 60V105.318H152.977V60H142.977ZM87.9766 160.318H78V170.318H87.9766V160.318ZM23 105.318V60H13V105.318H23ZM78 160.318C47.6243 160.318 23 135.693 23 105.318H13C13 141.216 42.1015 170.318 78 170.318V160.318ZM142.977 105.318C142.977 135.693 118.352 160.318 87.9766 160.318V170.318C123.875 170.318 152.977 141.216 152.977 105.318H142.977ZM87.9765 5C118.352 5 142.977 29.6243 142.977 60H152.977C152.977 24.1015 123.875 -5 87.9765 -5V5ZM78 -5C42.1015 -5 13 24.1015 13 60H23C23 29.6244 47.6243 5 78 5V-5Z" fill="#3787FE" fill-opacity="0.85" mask="url(#path-7-inside-4_5_857)"/>
<mask id="path-9-inside-5_5_857" fill="white">
<path d="M1.30469 185.682C1.30469 152.545 28.1676 125.682 61.3047 125.682H107C140.137 125.682 167 152.545 167 185.682V231C167 264.137 140.137 291 107 291H61.3047C28.1676 291 1.30469 264.137 1.30469 231V185.682Z"/>
</mask>
<path d="M61.3047 130.682H107V120.682H61.3047V130.682ZM162 185.682V231H172V185.682H162ZM107 286H61.3047V296H107V286ZM6.30469 231V185.682H-3.69531V231H6.30469ZM61.3047 286C30.929 286 6.30469 261.376 6.30469 231H-3.69531C-3.69531 266.899 25.4062 296 61.3047 296V286ZM162 231C162 261.376 137.376 286 107 286V296C142.898 296 172 266.898 172 231H162ZM107 130.682C137.376 130.682 162 155.307 162 185.682H172C172 149.784 142.898 120.682 107 120.682V130.682ZM61.3047 120.682C25.4062 120.682 -3.69531 149.784 -3.69531 185.682H6.30469C6.30469 155.307 30.929 130.682 61.3047 130.682V120.682Z" fill="#94BFFF" fill-opacity="0.69" mask="url(#path-9-inside-5_5_857)"/>
<mask id="path-11-inside-6_5_857" fill="white">
<path d="M0 60C0 26.8629 26.8629 0 60 0H105.695C138.832 0 165.695 26.8629 165.695 60V105.318C165.695 138.455 138.832 165.318 105.695 165.318H60C26.8629 165.318 0 138.455 0 105.318V60Z"/>
</mask>
<path d="M60 5H105.695V-5H60V5ZM160.695 60V105.318H170.695V60H160.695ZM105.695 160.318H60V170.318H105.695V160.318ZM5 105.318V60H-5V105.318H5ZM60 160.318C29.6243 160.318 5 135.693 5 105.318H-5C-5 141.216 24.1015 170.318 60 170.318V160.318ZM160.695 105.318C160.695 135.693 136.071 160.318 105.695 160.318V170.318C141.594 170.318 170.695 141.216 170.695 105.318H160.695ZM105.695 5C136.071 5 160.695 29.6243 160.695 60H170.695C170.695 24.1015 141.594 -5 105.695 -5V5ZM60 -5C24.1015 -5 -5 24.1015 -5 60H5C5 29.6244 29.6243 5 60 5V-5Z" fill="#94BFFF" fill-opacity="0.69" mask="url(#path-11-inside-6_5_857)"/>
</svg>
